# xmcd
#
# Track frame offsets: 
#        150
#        20597
#        42192
#        64220
#        80685
#        106505
#        128470
#        150305
#        169452
#        192062
#        208105
#        230177
#        256705
#
# Disc length: 3521 seconds
#
# Revision: 2
# Processed by: cddbd v1.5.1PL0 Copyright (c) Steve Scherf et al.
# Submitted via: ExactAudioCopy v0.95a5
#
DISCID=a40dbf0d
DTITLE=Say Zuzu - Bull
DYEAR=1998
DGENRE=Rock
TTITLE0=Pennsylvania
TTITLE1=Wasting Time
TTITLE2=Time Was
TTITLE3=Maylee
TTITLE4=Fredericksburg
TTITLE5=Moonshiner
TTITLE6=Other Girls
TTITLE7=I'm Your Man (Stringbean)
TTITLE8=Big Blue
TTITLE9=Government Job
TTITLE10=Bull's Theme
TTITLE11=Hank
TTITLE12=Rising Of The Moon
EXTD=Alt-Country
EXTT0=
EXTT1=
EXTT2=
EXTT3=
EXTT4=
EXTT5=
EXTT6=
EXTT7=
EXTT8=
EXTT9=
EXTT10=
EXTT11=
EXTT12=
PLAYORDER=
